<svg width="26" height="19" viewBox="0 0 26 19" fill="none" xmlns="http://www.w3.org/2000/svg">
<path d="M5.26044 4.66114L8.01752 13.3889C8.44137 14.7302 8.65261 15.4008 9.06 15.8973C9.41663 16.3361 9.88163 16.6749 10.407 16.8847C11.0037 17.1219 11.706 17.1219 13.1133 17.1219H18.4011C19.8085 17.1219 20.5108 17.1219 21.1061 16.8847C21.6328 16.6749 22.0965 16.3361 22.4545 15.8973C22.8605 15.4008 23.0717 14.7302 23.4969 13.3889L24.058 11.6115L24.3872 10.561L24.8412 9.12103C25.0032 8.60743 25.0419 8.0629 24.9542 7.53154C24.8666 7.00019 24.6549 6.49696 24.3364 6.06263C24.018 5.62829 23.6017 5.27507 23.1212 5.03159C22.6408 4.7881 22.1097 4.66119 21.5711 4.66114H5.26044ZM5.26044 4.66114L5.24535 4.6104C5.18743 4.41642 5.12339 4.22433 5.05332 4.0344C4.77562 3.3316 4.3047 2.7217 3.69498 2.27517C3.08525 1.82864 2.36161 1.5637 1.60765 1.51097C1.46637 1.5 1.31137 1.5 1 1.5" stroke="white" stroke-width="2" stroke-linecap="round" stroke-linejoin="round"/>
</svg>
