<svg width="22" height="14" viewBox="0 0 22 14" fill="none" xmlns="http://www.w3.org/2000/svg">
<path d="M20.7693 6.54274C18.8115 3.22045 15.1601 1 11 1C6.83821 1 3.18766 3.22201 1.23078 6.54274C1.07969 6.79913 1 7.09131 1 7.38891C1 7.68651 1.07969 7.97868 1.23078 8.23507C3.18859 11.5573 6.83995 13.7778 11 13.7778C15.1618 13.7778 18.8124 11.5558 20.7693 8.23503C20.9203 7.97865 21 7.68648 21 7.38889C21 7.09129 20.9203 6.79913 20.7693 6.54274ZM11 12.1111C7.43904 12.1111 4.33019 10.2118 2.66668 7.38889C4.19991 4.78705 6.96102 2.96979 10.1723 2.70115C10.5124 3.05132 10.7222 3.52882 10.7222 4.05556C10.7222 5.12944 9.85168 6 8.77779 6C7.70391 6 6.83335 5.12944 6.83335 4.05556L6.83338 4.0541C6.47898 4.71677 6.27779 5.47375 6.27779 6.27778C6.27779 8.8858 8.392 11 11 11C13.608 11 15.7222 8.8858 15.7222 6.27778C15.7222 5.20031 15.3611 4.20733 14.7537 3.41267C16.6842 4.2166 18.292 5.62174 19.3334 7.38889C17.6699 10.2118 14.561 12.1111 11 12.1111Z" fill="black" stroke="black" stroke-width="0.0347222"/>
</svg>
