<?xml version="1.0" encoding="UTF-8"?>
<svg id="_圖層_2" data-name="圖層 2" xmlns="http://www.w3.org/2000/svg" viewBox="0 0 265.94 60.52">
  <defs>
    <style>
      .cls-1 {
        fill: #fff;
      }

      .cls-2 {
        fill: tan;
      }
    </style>
  </defs>
  <g id="__1" data-name="_1">
    <g>
      <path class="cls-2" d="m235.7,60.33c-.36,0-.36-.07-.72-.07s-.36-.02-.72-.02-.36-.21-.72-.21-.36.25-.72.25-.36-.23-.72-.23-.36.37-.72.37-.36-.19-.72-.19-.36.14-.72.14-.36.13-.72.13-.36-.06-.72-.06-.36-.44-.72-.44-.36.31-.72.31-.36-.12-.72-.12-.36-.06-.72-.06-.36.1-.72.1-.36.1-.72.1-.36.06-.72.06-.36.13-.72.13-.36-.28-.72-.28-.36-.11-.72-.11-.36.29-.72.29-.36-.06-.72-.06-.36-.28-.72-.28-.36.12-.72.12-.36.08-.72.08-.36-.19-.72-.19-.36,0-.72,0-.36.07-.72.07-.36-.14-.72-.14-.36-.05-.72-.05-.36.09-.72.09-.36.21-.72.21-.36-.17-.72-.17-.36.09-.72.09-.36-.14-.72-.14-.36.44-.72.44-.36-.09-.72-.09-.36-.12-.72-.12-.36-.21-.72-.21-.36.24-.72.24-.36-.31-.72-.31-.36.03-.72.03-.36.21-.72.21-.36-.15-.72-.15-.36.25-.72.25-.36-.31-.72-.31-.36.44-.72.44-.36-.48-.72-.48-.36,0-.72,0-.36.42-.72.42-.36-.45-.72-.45-.36.2-.72.2-.36-.18-.72-.18-.36.34-.72.34-.36,0-.72,0-.36-.04-.72-.04-.36-.14-.72-.14-.36-.03-.72-.03-.36-.03-.72-.03-.36.33-.72.33-.36-.34-.72-.34-.36.38-.72.38-.36-.29-.72-.29-.36.28-.72.28-.36-.02-.72-.02-.36-.44-.72-.44-.36.05-.72.05-.36.34-.72.34-.36-.25-.72-.25-.36.08-.72.08-.36.04-.72.04-.36.25-.72.25-.36-.04-.72-.04-.36-.01-.72-.01-.36-.2-.72-.2-.36.21-.72.21-.36-.1-.72-.1-.36.12-.72.12-.36-.29-.72-.29-.36.25-.72.25-.36-.42-.72-.42-.36.46-.72.46-.36-.02-.72-.02-.36-.1-.72-.1-.36-.2-.72-.2-.36-.06-.72-.06-.36.09-.72.09-.36.14-.72.14-.36-.28-.72-.28-.36.02-.72.02-.36.08-.72.08-.36.14-.72.14-.36-.14-.72-.14-.36.04-.72.04-.36-.03-.72-.03-.36-.09-.72-.09-.36-.08-.72-.08-.36.27-.72.27-.36-.17-.72-.17-.36.31-.72.31-.36-.31-.72-.31-.36-.11-.72-.11-.36.02-.72.02-.36.16-.72.16-.36-.05-.72-.05-.36-.09-.72-.09-.36.31-.72.31-.36-.18-.72-.18-.36.01-.72.01-.36.24-.72.24-.36-.41-.72-.41-.36.06-.72.06-.36.43-.72.43-.36-.41-.72-.41-.36.15-.72.15-.36-.25-.72-.25-.36.06-.72.06-.36.41-.72.41-.36-.34-.72-.34-.36-.04-.72-.04-.36.22-.72.22-.36.15-.72.15-.36-.13-.72-.13-.36-.12-.72-.12-.36.03-.72.03-.36.14-.72.14-.36-.38-.72-.38-.36.46-.72.46-.36-.32-.72-.32-.36.08-.72.08-.36.18-.72.18-.36-.15-.72-.15-.36.07-.72.07-.36.05-.72.05-.36-.37-.72-.37-.36.17-.72.17-.36.16-.72.16-.36.08-.72.08-.36-.08-.72-.08-.36-.04-.72-.04-.36.1-.72.1-.36-.25-.72-.25-.36.13-.72.13-.36.13-.72.13-.36-.12-.72-.12-.36,0-.72,0-.36-.3-.72-.3-.36.12-.72.12-.36.37-.72.37-.36-.05-.72-.05-.36-.06-.72-.06-.36,0-.72,0-.36-.27-.72-.27-.36.22-.72.22-.36-.11-.72-.11-.36.13-.72.13-.36.17-.72.17-.36-.03-.72-.03-.36-.03-.72-.03-.36-.26-.72-.26-.36.26-.72.26-.36-.31-.72-.31-.36-.11-.72-.11-.36.27-.72.27-.36.1-.72.1-.36-.12-.72-.12-.36-.21-.72-.21-.36.14-.72.14-.36.01-.72.01-.36-.08-.72-.08-.36-.08-.72-.08-.36-.01-.72-.01-.36.16-.72.16-.36.16-.72.16-.36-.31-.72-.31-.36.24-.72.24-.36-.03-.72-.03-.36-.18-.72-.18-.36.32-.72.32-.36.03-.72.03-.36-.1-.72-.1-.36.09-.72.09-.36-.07-.72-.07-.36-.09-.72-.09-.36-.25-.72-.25-.36.28-.72.28-.36.06-.72.06-.36.08-.72.08-.36-.27-.72-.27-.36.06-.72.06-.36.18-.72.18-.36,0-.72,0-.36-.06-.72-.06-.36,0-.72,0-.36-.18-.72-.18-.36-.13-.72-.13-.36-.03-.72-.03-.36-.02-.72-.02-.36.29-.72.29-.36.12-.72.12-.36-.11-.72-.11-.36.13-.72.13-.36-.03-.72-.03-.36-.02-.72-.02-.36.11-.72.11-.36,0-.72,0-.36-.22-.72-.22-.36-.17-.72-.17-.36,0-.72,0-.36.09-.72.09-.36-.1-.72-.1-.36.27-.72.27-.36-.12-.72-.12-.36-.05-.72-.05-.36.2-.72.2-.36-.37-.72-.37-.36.1-.72.1-.36.05-.72.05-.36.28-.72.28-.36-.35-.72-.35-.36.17-.72.17-.36.11-.72.11-.36-.17-.72-.17-.36.02-.72.02-.36.14-.72.14-.36-.02-.72-.02-.36-.3-.72-.3-.36.35-.72.35-.36-.17-.72-.17-.36.09-.72.09-.36-.22-.72-.22-.36.39-.72.39-.36-.41-.72-.41-.36-.02-.72-.02-.36.17-.72.17-.36.23-.72.23-.36-.2-.72-.2-.36.1-.72.1-.36-.32-.72-.32-.36.14-.72.14-.36.29-.72.29-.36-.15-.72-.15-.36,0-.72,0-.36-.27-.72-.27-.36.43-.73.43-.36-.11-.73-.11-.36-.38-.72-.38-.36.29-.72.29-.36.01-.72.01-.36,0-.72,0-.36-.2-.72-.2-.36.03-.72.03-.36.25-.72.25-.36,0-.72,0-.36.06-.73.06-.36-.2-.73-.2-.36.06-.73.06-.36-.12-.73-.12-.36.25-.72.25-.36-.12-.72-.12-.36-.25-.73-.25-.36.13-.73.13-.36.03-.73.03-.36.32-.73.32-.36-.1-.73-.1-.36.04-.73.04-.36.02-.72.02-.36-.39-.72-.39-.36.08-.72.08-.36-.09-.73-.09-.36.24-.73.24-.36-.04-.73-.04-.36.02-.73.02-.36,0-.73,0-.36-.04-.73-.04-.36.12-.73.12-.36-.02-.73-.02-.37-.07-.73-.07-.36.2-.73.2-.36-.47-.73-.47-.36.24-.73.24-.37.23-.73.23-.37-.02-.73-.02-.37-.07-.73-.07-.37-.27-.73-.27c-.24,0-.49.32-.73.31s-.48-.2-.72-.22-.49.03-.73.02-.48-.12-.72-.15-.5.09-.74.06-.48-.07-.72-.1-.48-.05-.72-.09-.43-.36-.66-.41-.52.13-.76.08-.5-.01-.73-.07-.49-.07-.72-.13-.46-.17-.69-.24-.47-.14-.7-.22-.48-.11-.71-.19-.42-.27-.65-.36-.31-.53-.53-.62-.5-.04-.72-.14-.48-.12-.69-.22-.37-.34-.59-.45-.39-.3-.6-.41-.67.23-.89.11-.24-.56-.45-.68-.51-.09-.72-.22-.46-.18-.66-.31-.28-.45-.48-.59-.5-.14-.69-.28-.37-.32-.56-.46-.32-.38-.51-.53-.38-.3-.57-.45-.34-.35-.52-.51-.27-.42-.44-.59-.65-.02-.82-.19-.19-.5-.36-.67-.38-.3-.55-.48-.45-.25-.61-.43-.21-.46-.36-.65-.14-.51-.3-.7-.34-.34-.49-.53-.19-.45-.34-.65-.46-.26-.6-.46-.44-.29-.57-.49.15-.67.02-.87-.63-.19-.75-.39-.16-.47-.27-.68,0-.55-.12-.76-.34-.36-.45-.58-.03-.52-.13-.74-.37-.36-.47-.58-.32-.39-.41-.61-.1-.48-.19-.71-.22-.43-.3-.66-.21-.44-.28-.67-.18-.45-.25-.68.04-.51-.03-.75-.06-.48-.12-.72-.25-.44-.31-.67.04-.5-.01-.74-.43-.42-.47-.65.29-.53.25-.77-.2-.46-.23-.7.08-.49.06-.73.09-.49.08-.73-.06-.47-.07-.72-.39-.47-.39-.71.09-.49.09-.73h-.16c0-.24.34-.48.35-.72s.07-.48.08-.72-.17-.49-.15-.73.14-.47.16-.71-.31-.52-.28-.76.54-.42.57-.66.05-.48.09-.71-.27-.54-.23-.78.22-.45.27-.69.33-.42.39-.65-.28-.57-.22-.81.5-.36.57-.59.23-.43.3-.66-.14-.56-.06-.79.24-.43.33-.65.33-.39.42-.61.22-.43.32-.65.22-.43.32-.64.2-.44.3-.65.02-.53.13-.74.15-.47.27-.68.26-.41.38-.62.46-.28.59-.49-.08-.62.06-.82.31-.38.45-.58.35-.34.5-.54.31-.38.45-.57.47-.25.62-.43.1-.54.26-.73.19-.48.35-.66.48-.22.65-.4.4-.29.57-.46.43-.25.6-.42.2-.49.37-.66.52-.14.7-.3.38-.29.56-.45.1-.64.29-.79.33-.37.52-.52.45-.22.64-.36.44-.22.64-.36.32-.4.52-.54.63.09.84-.03.31-.42.52-.54.49-.11.7-.22.47-.14.68-.25.4-.26.62-.37.32-.45.54-.55.49-.08.72-.18.36-.38.59-.47.58.15.8.06.45-.15.68-.23.31-.6.54-.67.47-.14.7-.21.5-.03.73-.09.53.14.77.08.48-.07.71-.12.39-.51.62-.56.53.18.76.14.45-.28.68-.31.52.21.76.19.47-.15.71-.18.49.12.73.1.46-.34.7-.35.48-.11.73-.12.49.3.73.3c.36,0,.36-.07.72-.07s.36-.21.72-.21.36.39.72.39.36-.32.72-.32.36-.06.72-.06.36.29.72.29.36-.16.72-.16.36-.07.72-.07.36.23.72.23.36-.09.72-.09.36,0,.72,0,.36-.17.72-.17.36.08.72.08.36-.03.72-.03.36.01.72.01.36-.04.72-.04.36-.05.72-.05.36.31.72.31.36-.1.72-.1.36-.24.72-.24.36.42.72.42.36-.3.72-.3.36-.16.72-.16.36.33.72.33.36,0,.72,0,.36-.07.72-.07.36-.14.72-.14.36.22.72.22.36.12.72.12.36-.41.72-.41.36.15.72.15.36.21.72.21.36.07.72.07.36-.35.72-.35.36.34.72.34.36-.46.72-.46.36.35.72.35.36-.03.72-.03.36-.33.72-.33.36.31.72.31.36-.22.72-.22.36.28.72.28.36-.27.72-.27.36.23.72.23.36.17.72.17.36-.39.72-.39.36-.09.72-.09.36.04.72.04.36.03.72.03.36.39.72.39.36-.23.72-.23.36-.05.72-.05.36.24.72.24.36-.03.72-.03.36.04.72.04.36-.25.72-.25.36-.04.72-.04.36.17.72.17.36.13.72.13.36-.29.72-.29.36-.17.72-.17.36.22.72.22.36.14.72.14.36.02.72.02.36-.12.72-.12.36-.22.72-.22.36.15.72.15.36.1.72.1.36-.05.72-.05.36-.07.72-.07.36-.15.72-.15.36.21.72.21.36-.2.72-.2.36.02.72.02.36.32.72.32.36-.03.72-.03.36-.19.72-.19.36-.07.72-.07.36-.01.72-.01.36.38.72.38.36-.24.72-.24.36.12.72.12.36-.27.72-.27.36.13.72.13.36,0,.72,0,.36.18.72.18.36-.37.72-.37.36.4.72.4.36-.14.72-.14.36.07.72.07.36-.31.72-.31.36.38.72.38.36,0,.72,0,.36.1.72.1.36-.17.72-.17.36-.27.72-.27.36.13.72.13.36-.04.72-.04.36.16.72.16.36,0,.72,0,.36-.27.72-.27.36.25.72.25.36.2.72.2.36-.31.72-.31.36.05.72.05.36.17.72.17.36-.41.72-.41.36.16.72.16.36.3.72.3.36-.11.72-.11.36-.05.72-.05.36.08.72.08.36-.05.72-.05.36-.3.72-.3.36.42.72.42.36-.37.72-.37.36.2.72.2.36-.23.72-.23.36.31.72.31.36-.12.72-.12.36,0,.72,0,.36.02.72.02.36-.12.72-.12.36.31.72.31.36-.19.72-.19.36.23.72.23.36-.26.72-.26.36.2.72.2.36-.45.72-.45.36.26.72.26.36.25.72.25.36-.2.72-.2.36-.3.72-.3.36.25.72.25.36.07.72.07.36-.31.72-.31.36.32.72.32.36-.02.72-.02.36-.3.72-.3.36.11.72.11.36.31.72.31.36-.15.72-.15.36.1.72.1.36-.38.72-.38.36.42.72.42.36-.36.72-.36.36.42.72.42.36-.3.72-.3.36-.19.72-.19.36.11.72.11.36.15.72.15.36-.2.72-.2.36.24.72.24.36-.28.72-.28.36.47.72.47.36-.47.72-.47.36.11.72.11.36.32.72.32.36-.05.72-.05.36-.05.72-.05.36.12.72.12.36-.47.72-.47.36.35.72.35.36-.12.72-.12.36-.1.72-.1.36.15.72.15.36-.06.72-.06.36-.11.72-.11.36-.04.72-.04.36.1.72.1.36.21.72.21.36.02.72.02.36-.34.72-.34.36-.05.72-.05.36.26.72.26.36-.17.72-.17.36,0,.72,0,.36.29.72.29.36-.04.72-.04.36-.18.72-.18.36-.02.72-.02.36.23.72.23.36-.07.72-.07.36.01.72.01.36-.07.72-.07.36.23.72.23.36-.27.72-.27.36-.02.72-.02.36.2.72.2.36-.11.72-.11.36.05.72.05.36-.02.72-.02.36.18.72.18.36-.41.72-.41.36-.05.72-.05.36.38.72.38.36-.06.72-.06.36-.05.72-.05.36-.16.72-.16.36.29.72.29.36-.03.72-.03.36-.11.72-.11.36.2.72.2.36-.15.72-.15.36-.19.72-.19.36.15.72.15.36-.18.72-.18.36.26.72.26.36-.27.72-.27.36.16.72.16.36-.1.72-.1.36.31.72.31.36-.19.72-.19.36.04.72.04.36-.04.72-.04.36.16.72.16.36-.42.72-.42.36.3.72.3.36-.28.72-.28.36.2.72.2.36.01.72.01.36-.15.72-.15.36.24.72.24.36,0,.72,0,.36-.31.72-.31.36.46.72.46.36-.35.72-.35.36.23.72.23.36.02.72.02.36-.03.72-.03.36-.16.72-.16.36.17.72.17.36-.19.72-.19.36.15.72.15.36-.08.72-.08.36-.08.72-.08.36.2.72.2.36-.34.72-.34.36.32.72.32.36-.25.72-.25.36.12.72.12.36.26.72.26.36-.47.72-.47.36.24.72.24.36.06.73.06.36-.22.73-.22.36.1.72.1.36.21.72.21.36-.23.72-.23.36.08.72.08.36-.11.72-.11.36.15.72.15.36.05.72.05.36-.13.72-.13.36.26.73.26.36-.47.73-.47.36.33.73.33.36-.15.73-.15.36.12.72.12.36-.3.72-.3.36.39.73.39.36-.17.73-.17.36.09.73.09.36.21.73.21.36-.44.73-.44.36.37.73.37.36-.36.72-.36.36.35.72.35.36-.24.72-.24.36.18.73.18.36-.32.73-.32.36.1.73.1.36.23.73.23.36-.23.73-.23.36.37.73.37.36-.45.73-.45.36-.03.73-.03.37,0,.73,0,.36.25.73.25.36-.06.73-.06.36.05.73.05.37.05.73.05.37-.22.73-.22.37.11.73.11.37-.18.73-.18c.24,0,.48.46.72.47s.48-.07.72-.06.48.06.72.08.52-.42.76-.4.48.09.72.11.49.05.73.09.49.05.73.09.42.4.66.45.48.08.71.14.53-.14.77-.08.39.44.62.5.49.03.72.1.5.02.73.1.38.39.61.47.46.15.68.23.58-.16.81-.07.46.17.68.27.4.3.62.41.32.45.53.56.59-.09.8.03.26.54.47.66.55,0,.76.13.37.33.57.46.46.18.66.31.39.29.59.43.47.18.66.33.4.28.59.43.33.36.52.52.42.26.6.41.35.34.53.5.26.44.43.6.37.32.54.48.48.2.65.38.25.44.41.61.25.43.41.61.18.48.34.66.36.32.52.51.26.41.4.6.39.31.53.5.54.21.68.41.12.51.25.71.13.49.26.7.46.28.59.49.29.4.4.61-.15.63-.04.84.64.22.74.43.08.5.19.72.21.44.31.66.35.38.44.61-.02.53.07.76.07.49.15.72.44.36.51.59-.13.55-.06.78.34.41.41.64-.21.55-.15.79.36.41.41.65.08.48.13.72-.01.49.03.73.34.44.37.68-.03.49,0,.74-.31.52-.28.76.25.46.27.7-.14.49-.13.73.38.47.39.71-.15.49-.15.73h.23c0,.24-.27.48-.28.72s.15.49.14.73-.36.46-.38.7.37.52.35.76-.21.47-.24.71-.06.48-.09.72-.03.49-.07.72-.16.46-.21.7-.24.44-.29.68-.1.47-.16.7-.02.49-.09.72-.22.44-.29.67.04.52-.03.75-.11.48-.19.71-.42.36-.5.59.14.57.04.8-.44.34-.54.56-.3.39-.4.61.02.54-.09.76-.31.39-.42.6-.36.35-.48.56-.23.42-.35.63-.2.44-.33.65-.22.43-.36.63-.22.43-.36.63-.16.48-.31.67-.4.3-.55.49-.17.48-.32.67-.19.48-.34.66-.39.3-.55.48-.6.11-.76.28-.26.42-.43.59-.18.5-.35.67-.28.41-.46.58-.56.1-.74.26-.4.27-.59.42-.25.45-.44.6-.5.15-.69.29-.21.52-.41.67-.35.35-.55.48-.57.01-.78.15-.32.4-.52.53-.5.1-.71.22-.33.39-.54.5-.37.33-.59.44-.58-.08-.8.03-.23.64-.45.74-.59-.14-.81-.04-.32.48-.55.57-.52,0-.75.09-.39.36-.61.44-.56-.15-.79-.08-.38.39-.61.46-.51,0-.74.06-.49.02-.73.08-.39.46-.63.51-.5-.02-.74.03-.52-.19-.76-.15-.47.06-.71.09-.47.11-.71.14-.45.34-.69.36-.49-.05-.73-.03-.49-.14-.73-.13-.48-.05-.72-.04-.48.27-.72.27Z"/>
      <g>
        <path class="cls-1" d="m40.55,38.9c-.15.19-.35.33-.52.48s-.33.35-.53.47-.41.24-.63.33-.48.05-.7.12-.42.25-.64.3-.47.05-.7.09-.46.11-.69.15-.48-.01-.71.03-.45.15-.68.19-.45.15-.67.2c-.23.06-.5-.01-.71.07-.18.07-.34.3-.59.44-.19.1-.44.16-.66.29-.2.11-.38.29-.59.41-.2.11-.45.17-.66.29s-.45.16-.67.26-.4.3-.62.38-.46.17-.68.23-.49.03-.72.06-.47.02-.7,0-.5.05-.72-.03c-.23-.08-.4-.28-.6-.39s-.39-.26-.57-.4-.46-.2-.62-.38-.24-.41-.37-.62-.21-.42-.3-.64-.26-.41-.33-.64.02-.48-.01-.72-.09-.46-.09-.7,0-.47.01-.71.09-.46.13-.69.02-.47.08-.71.14-.45.22-.68.18-.43.28-.65.12-.47.24-.68.34-.35.47-.56c.14-.22.27-.44.38-.66.12-.23.22-.47.31-.69.1-.24.14-.5.21-.73.08-.25.14-.49.2-.72.07-.25.12-.5.19-.73.07-.25.2-.47.29-.69.09-.24.12-.51.25-.71s.37-.33.56-.51c.17-.15.31-.39.55-.52.2-.11.48-.08.74-.17.25-.08.47-.21.7-.26.26-.06.51-.07.74-.1.27-.03.51-.02.74-.01.26,0,.5.02.73.07.25.06.5.09.72.19s.44.23.65.36.43.25.63.4.42.26.62.41.36.34.57.48.44.2.67.31c.22.1.4.31.65.38.23.07.47.11.7.2s.46.17.68.28.41.26.61.4.38.3.57.45.4.28.57.45.36.33.52.51.29.39.43.59.29.39.41.6.19.45.27.68.25.44.3.68.03.49.03.74,0,.49-.04.73-.07.48-.15.72c-.08.22-.19.45-.31.67-.11.2-.26.41-.41.61Z"/>
        <path class="cls-1" d="m27.25,23.1c.11.23.22.45.3.67.09.24.15.47.2.7.06.25.08.49.1.72.02.25.04.49.02.73-.03.25-.04.5-.11.73-.08.24-.24.43-.38.63s-.26.42-.44.58-.41.25-.63.36c-.22.11-.44.23-.67.28s-.48.01-.73,0-.49,0-.72-.07c-.22-.07-.43-.21-.65-.34-.2-.12-.38-.27-.58-.44-.17-.15-.33-.33-.5-.52-.15-.18-.3-.37-.44-.58-.13-.2-.24-.41-.35-.64-.11-.23-.27-.43-.36-.67s-.18-.48-.24-.72-.05-.51-.08-.75-.04-.5-.05-.75-.04-.51-.02-.75c.02-.26.01-.52.06-.76.06-.26.17-.49.26-.71.1-.24.25-.44.4-.64.16-.21.34-.36.54-.5.22-.15.44-.24.68-.27s.48.01.74.08c.23.06.46.14.7.27.21.12.44.23.65.39.19.15.36.34.55.52s.33.37.5.57.31.39.46.6.29.41.42.63.25.44.36.66Z"/>
        <path class="cls-1" d="m22.92,29.73c.15.22.25.45.36.67.12.24.26.46.32.69.07.26.1.52.11.76,0,.27-.08.51-.15.74-.07.25-.15.48-.3.69s-.31.4-.52.55c-.21.15-.45.25-.7.32s-.5.05-.76.03c-.24-.02-.49-.08-.73-.19-.22-.09-.45-.2-.67-.36-.19-.14-.39-.3-.57-.5-.16-.18-.32-.38-.47-.6-.14-.21-.23-.45-.34-.68s-.26-.44-.34-.68-.13-.5-.17-.74-.04-.51-.05-.75c0-.26-.01-.51.02-.75.04-.26.08-.52.18-.73.11-.24.28-.44.46-.6.2-.18.43-.27.68-.31.23-.03.48.03.74.1.23.07.46.16.69.29.21.12.42.26.63.42.2.15.4.3.59.48s.33.39.49.58.35.37.49.58Z"/>
        <path class="cls-1" d="m36.68,25.51c.01.27.04.52.09.76.05.26.11.52.2.74.1.25.28.44.42.64.15.22.3.42.49.57.2.16.44.25.68.32s.48.12.74.11c.26,0,.51-.05.74-.15s.47-.21.66-.38c.18-.16.34-.37.47-.6.12-.21.19-.45.26-.71.07-.23.13-.47.16-.74.03-.24.07-.49.06-.76,0-.25-.09-.5-.13-.74s-.06-.51-.14-.74-.18-.48-.28-.7-.23-.47-.37-.67c-.15-.22-.32-.41-.49-.58-.19-.19-.42-.29-.63-.41-.23-.13-.46-.22-.7-.24-.27-.02-.52,0-.74.13-.21.12-.41.29-.57.5-.14.19-.22.44-.33.68-.1.22-.2.45-.27.71-.07.24-.11.49-.15.74s-.06.5-.08.75-.09.51-.08.76Z"/>
        <path class="cls-1" d="m28.89,22.55c.04.25.06.5.13.73.07.24.2.46.29.67.1.23.24.43.36.63.14.21.25.43.4.61.17.19.38.32.57.45.21.14.41.28.63.36s.47.17.71.19.49,0,.73-.05c.25-.04.47-.14.69-.24s.4-.26.59-.42.4-.28.55-.48c.14-.19.18-.45.28-.68.09-.22.24-.42.29-.67.05-.23.06-.47.08-.73.01-.23.02-.48,0-.73-.02-.23-.1-.47-.15-.72-.04-.25-.04-.51-.11-.75s-.2-.46-.3-.69-.18-.47-.29-.69-.23-.46-.37-.66-.33-.39-.5-.57c-.17-.19-.34-.38-.53-.54-.2-.17-.41-.31-.62-.43-.23-.13-.45-.26-.68-.32-.25-.07-.5-.14-.75-.13-.26.01-.52.09-.74.22s-.41.3-.57.51c-.15.19-.22.44-.33.69-.1.22-.18.45-.25.71-.06.24-.14.48-.18.73s-.04.5-.06.76-.08.5-.07.76.08.5.1.75.02.51.07.76Z"/>
      </g>
    </g>
  </g>
</svg>